<?xml version="1.0" encoding="utf-8"?>
<!-- Generator: Adobe Illustrator 25.0.0, SVG Export Plug-In . SVG Version: 6.00 Build 0)  -->
<svg version="1.1" id="Layer_1" xmlns="http://www.w3.org/2000/svg" xmlns:xlink="http://www.w3.org/1999/xlink" x="0px" y="0px"
	 viewBox="0 0 231.13 288.61" style="enable-background:new 0 0 231.13 288.61;" xml:space="preserve">
<style type="text/css">
	.st0{fill:#F4E501;}
</style>
<g>
	<path class="st0" d="M125.65,166.32l-8.55-9.55c-0.82-0.92-2.26-0.92-3.08,0l-8.52,9.55c-2.44,2.52-4.29,5.98-3.87,11.08
		c-0.03,3.14,3.45,12.66,13.93,12.66c10.5,0,13.97-9.52,13.95-12.66C129.93,172.3,128.09,168.84,125.65,166.32z"/>
	<path class="st0" d="M148.16,188.82c-6.54,12.25-20.15,20.41-35.44,18.69c-16.43-1.85-29.58-15.09-31.25-31.54
		c-2.17-21.28,14.47-39.23,35.31-39.23c13.97,0,26.05,7.74,31.85,19.77c0.51,1.06,1.59,1.73,2.77,1.73h24.37
		c2.04,0,3.54-1.94,2.98-3.9c-7.95-27.67-33.78-47.54-64.13-46.56c-33.32,1.08-60.62,27.9-62.26,61.2
		c-1.83,37.11,27.72,67.77,64.42,67.77c29.03,0,53.56-19.53,61.65-45.6c0.6-1.94-0.89-3.91-2.92-3.91h-24.66
		C149.73,187.24,148.69,187.84,148.16,188.82z"/>
	<path class="st0" d="M53.7,112.93C38.72,128.44,27.34,149.64,29.94,181c-0.16,19.31,21.22,77.8,85.59,77.8
		c64.5,0,85.83-58.49,85.66-77.8c2.6-31.36-8.72-52.56-23.69-68.07l-46.01-51.42c-1.02-1.14-1.02-2.87,0.01-4.01l15.53-17.17
		c1.2-1.32,3.27-1.32,4.46,0.01l46.65,52.14c19.95,20.66,35.03,48.9,31.6,90.66c-0.01,0.07-0.01,0.13-0.01,0.2
		c0.14,25.85-28.33,103.63-114.22,103.63c-85.72,0-114.27-77.79-114.12-103.63c0-0.07,0-0.13-0.01-0.2
		c-3.43-41.76,11.74-70,31.69-90.66l80.21-89.84c1.19-1.34,3.28-1.34,4.47,0l15.64,17.47c1.02,1.14,1.02,2.87,0,4L53.7,112.93z"/>
</g>
</svg>
